<?xml version="1.0" encoding="UTF-8" standalone="no"?>
<!-- Created with Inkscape (http://www.inkscape.org/) -->

<svg
   xmlns:dc="http://purl.org/dc/elements/1.1/"
   xmlns:cc="http://creativecommons.org/ns#"
   xmlns:rdf="http://www.w3.org/1999/02/22-rdf-syntax-ns#"
   xmlns:svg="http://www.w3.org/2000/svg"
   xmlns="http://www.w3.org/2000/svg"
   xmlns:sodipodi="http://sodipodi.sourceforge.net/DTD/sodipodi-0.dtd"
   xmlns:inkscape="http://www.inkscape.org/namespaces/inkscape"
   width="134.12834mm"
   height="103.6718mm"
   viewBox="0 0 134.12834 103.6718"
   version="1.1"
   id="svg2571"
   inkscape:version="0.92.2 2405546, 2018-03-11"
   sodipodi:docname="bot.svg">
  <defs
     id="defs2565" />
  <sodipodi:namedview
     id="base"
     pagecolor="#ffffff"
     bordercolor="#666666"
     borderopacity="1.0"
     inkscape:pageopacity="0.0"
     inkscape:pageshadow="2"
     inkscape:zoom="1"
     inkscape:cx="-77.957695"
     inkscape:cy="170.20092"
     inkscape:document-units="mm"
     inkscape:current-layer="layer1"
     showgrid="false"
     fit-margin-top="5"
     fit-margin-left="5"
     fit-margin-right="5"
     fit-margin-bottom="5"
     inkscape:window-width="1600"
     inkscape:window-height="860"
     inkscape:window-x="0"
     inkscape:window-y="20"
     inkscape:window-maximized="1" />
  <metadata
     id="metadata2568">
    <rdf:RDF>
      <cc:Work
         rdf:about="">
        <dc:format>image/svg+xml</dc:format>
        <dc:type
           rdf:resource="http://purl.org/dc/dcmitype/StillImage" />
        <dc:title></dc:title>
      </cc:Work>
    </rdf:RDF>
  </metadata>
  <g
     inkscape:label="Layer 1"
     inkscape:groupmode="layer"
     id="layer1"
     transform="translate(-32.721545,-90.193862)">
    <path
       style="opacity:1;vector-effect:none;fill:#4d4d4d;fill-opacity:1;fill-rule:evenodd;stroke:none;stroke-width:0.62069714px;stroke-linecap:butt;stroke-linejoin:miter;stroke-miterlimit:4;stroke-dasharray:none;stroke-dashoffset:0;stroke-opacity:1;marker:none"
       d="m 99.764796,95.193862 v 5.2e-4 c -11.854571,0.009 -23.728121,4.055652 -33.35919,12.137238 -5.022271,4.21397 -9.045291,9.21835 -12.051991,14.69368 -0.0339,0.0618 -0.0697,0.12261 -0.10334,0.18448 -0.43233,0.79242 -0.84341,1.59455 -1.23301,2.40554 -0.4349,-0.0608 -0.85622,-0.13436 -1.30276,-0.13436 -7.75158,0 -13.99296,6.24158 -13.99296,13.99295 v 0.0109 17.28318 0.0108 c 0,7.75137 6.24136,13.99295 13.99296,13.99295 0.44392,0 0.86477,-0.0962 1.29707,-0.13488 0.55774,1.15607 1.13451,2.30345 1.7849,3.4308 0.0414,0.0738 0.0867,0.1394 0.13023,0.20877 0.81021,1.78881 7.51393,15.58923 22.23119,15.58923 l 22.62757,-0.002 22.628095,0.002 c 14.72209,0 21.42513,-13.80936 22.23168,-15.59078 0.0432,-0.0689 0.0882,-0.13395 0.1292,-0.20722 0.65042,-1.12735 1.22767,-2.27473 1.78543,-3.4308 0.43231,0.0387 0.85315,0.13488 1.29707,0.13488 7.7516,0 13.99294,-6.24158 13.99294,-13.99295 v -0.0108 -17.28318 -0.0109 c 0,-7.75137 -6.24136,-13.99295 -13.99294,-13.99295 -0.44638,0 -0.86804,0.0736 -1.30276,0.13436 -0.38959,-0.81099 -0.80118,-1.61312 -1.23351,-2.40554 -0.0456,-0.0837 -0.094,-0.16608 -0.14004,-0.24959 -3.00281,-5.44975 -7.01255,-10.43139 -12.01478,-14.62857 -9.63107,-8.081586 -21.50461,-12.127738 -33.359194,-12.137238 v -5.2e-4 c -0.007,0 -0.0141,0 -0.02119,0 -0.007,0 -0.01381,0 -0.02069,0 z m 0.0191,7.697718 c 0.315254,0 0.630454,0.003 0.945684,0.01 0.001,3e-5 0.002,-2e-5 0.003,0 0.31417,0.007 0.62857,0.017 0.94258,0.0305 10e-4,5e-5 0.002,-4e-5 0.003,0 0.31401,0.0135 0.62783,0.0305 0.94155,0.0506 0.001,6e-5 0.002,-7e-5 0.003,0 0.31374,0.0202 0.62719,0.0439 0.94051,0.0708 8.80213,0.75508 17.42652,4.15257 24.62538,10.19318 16.45408,13.80677 20.6131,37.37936 9.87329,55.98159 -0.008,0.0128 -0.0128,0.0254 -0.0202,0.0382 l -0.0925,0.154 -0.0419,0.10387 c -0.042,0.0846 -0.0808,0.16871 -0.11629,0.2527 -0.41259,0.87572 -5.55808,11.37553 -15.37785,11.37553 l -12.81629,-0.1142 c -1.13133,-1.70059 -3.01143,-2.85454 -5.17694,-2.99724 -0.0143,-0.001 -0.0285,-0.002 -0.0429,-0.003 -0.13607,-0.008 -0.27265,-0.0134 -0.41084,-0.0134 h -0.004 -8.357629 c -0.13819,0 -0.275249,0.005 -0.411351,0.0134 -0.0145,0.001 -0.0289,0.002 -0.0434,0.003 -2.165249,0.14289 -4.045238,1.29682 -5.17644,2.99724 l -12.815754,0.1142 c -9.814581,0 -14.959941,-10.48795 -15.377341,-11.37346 -0.0362,-0.0857 -0.0759,-0.17151 -0.11885,-0.25787 l -0.0403,-0.10077 -0.092,-0.15296 c -0.008,-0.0131 -0.013,-0.0261 -0.0207,-0.0393 -10.7398,-18.60224 -6.58029,-42.17483 9.873829,-55.9816 7.198842,-6.0406 15.822721,-9.4381 24.624849,-10.19317 1.256432,-0.10769 2.516482,-0.16175 3.776531,-0.16175 z m -17.99891,16.86564 c -0.612492,0.006 -1.212702,0.0566 -1.800921,0.15555 -0.0199,0.003 -0.0396,0.007 -0.0594,0.0109 -0.17844,0.0311 -0.355682,0.0671 -0.531759,0.108 -0.0543,0.0125 -0.108691,0.0247 -0.162772,0.0382 -0.0783,0.0197 -0.156318,0.0403 -0.234109,0.062 -0.0977,0.0271 -0.195,0.0563 -0.291959,0.0868 -0.0642,0.0203 -0.128381,0.0408 -0.192252,0.0625 -0.120679,0.041 -0.24072,0.0853 -0.36018,0.13177 -0.0449,0.0175 -0.0896,0.0354 -0.13435,0.0537 -0.14084,0.0575 -0.281019,0.11739 -0.42014,0.18294 -0.006,0.003 -0.0131,0.006 -0.0196,0.009 -2.65e-4,1.7e-4 -7.94e-4,3.4e-4 -0.0011,5.3e-4 -0.15317,0.0726 -0.304768,0.15227 -0.4558,0.23513 -0.02159,0.0119 -0.0435,0.0235 -0.0651,0.0357 -0.311732,0.17445 -0.618911,0.37167 -0.92139,0.59272 -0.008,0.006 -0.0154,0.0118 -0.0232,0.0176 -0.312579,0.22992 -0.620049,0.48565 -0.92242,0.76946 -0.153781,0.14432 -0.306811,0.29365 -0.457859,0.45269 -6.41178,6.7501 -10.3823,15.93733 -10.3823,25.72143 0,7.38389 2.259428,16.62076 6.123638,17.30385 0.329682,0.0584 0.673661,0.0973 1.026301,0.12557 0.0348,0.004 0.0688,0.0114 0.10387,0.0139 0.0379,0.003 0.0776,0.003 0.11576,0.006 1.72288,0.10992 3.712231,-0.10982 5.910742,-0.48679 0.004,-7.9e-4 0.009,-0.001 0.01288,-0.002 0.006,-0.001 0.01252,-0.003 0.0186,-0.004 2.412931,-0.415 5.07656,-1.01622 7.946289,-1.5968 0.02561,-0.005 0.0514,-0.0104 0.077,-0.0155 0.53584,-0.10818 1.080638,-0.21457 1.62986,-0.31936 0.19545,-0.0372 0.393618,-0.0735 0.59068,-0.11007 0.440399,-0.0818 0.883449,-0.16183 1.331708,-0.23926 0.259631,-0.0448 0.523291,-0.0868 0.785461,-0.1297 0.45212,-0.0741 0.903901,-0.1485 1.363239,-0.21601 0.0633,-0.009 0.126712,-0.0182 0.190161,-0.0274 0.25159,-0.0363 0.50445,-0.072 0.758079,-0.10594 0.0988,-0.0132 0.198041,-0.0259 0.297162,-0.0388 0.241829,-0.0313 0.483999,-0.062 0.727599,-0.0909 0.116969,-0.0139 0.234529,-0.0265 0.351919,-0.0398 0.224851,-0.0255 0.450141,-0.0507 0.676441,-0.0739 0.135279,-0.0138 0.271428,-0.0263 0.40722,-0.0393 0.222039,-0.0212 0.444289,-0.0422 0.66765,-0.061 0.13771,-0.0116 0.276249,-0.0214 0.414441,-0.032 0.208327,-0.016 0.416398,-0.0323 0.625789,-0.046 0.194519,-0.0127 0.390099,-0.0229 0.585499,-0.0336 0.167029,-0.009 0.333611,-0.0193 0.50128,-0.0269 0.222591,-0.01 0.446561,-0.0167 0.67024,-0.0238 0.140121,-0.004 0.27959,-0.0107 0.420129,-0.0139 0.351851,-0.008 0.705012,-0.012 1.059371,-0.0124 0.01561,-2e-5 0.0309,-5.3e-4 0.0465,-5.3e-4 0.0164,0 0.0327,5.3e-4 0.0491,5.3e-4 0.354697,2.6e-4 0.708207,0.004 1.060397,0.0124 0.13726,0.003 0.27345,0.01 0.41031,0.0139 0.22715,0.007 0.45456,0.0136 0.68059,0.0238 0.16722,0.007 0.33311,0.0178 0.49969,0.0269 0.19498,0.0106 0.3904,0.0204 0.58447,0.0331 0.21122,0.0138 0.42137,0.0309 0.63148,0.047 0.137,0.0105 0.27432,0.02 0.41085,0.0315 0.22336,0.0188 0.44561,0.0397 0.66764,0.061 0.13563,0.013 0.27157,0.0255 0.4067,0.0393 0.22952,0.0235 0.4577,0.0491 0.68574,0.0749 0.11272,0.0128 0.22561,0.0249 0.33798,0.0382 0.24575,0.0292 0.49035,0.0603 0.7343,0.092 0.0982,0.0127 0.19664,0.0252 0.29456,0.0382 0.25776,0.0345 0.51435,0.0705 0.76999,0.10749 0.0577,0.008 0.11549,0.0164 0.17312,0.0248 0.46389,0.0682 0.92011,0.14368 1.37665,0.21859 0.25927,0.0425 0.51991,0.0833 0.77671,0.12764 0.4486,0.0775 0.89197,0.15789 1.33273,0.23978 0.19707,0.0366 0.39521,0.0728 0.59066,0.11007 0.54922,0.10478 1.09403,0.21117 1.62986,0.31936 0.0256,0.005 0.0514,0.0103 0.077,0.0155 2.86822,0.58028 5.53072,1.18129 7.94266,1.59628 0.0125,0.002 0.0253,0.005 0.0377,0.007 2.19731,0.37667 4.186,0.59608 5.90815,0.48628 0.0384,-0.002 0.0782,-0.003 0.11628,-0.006 0.0354,-0.003 0.0697,-0.0103 0.10491,-0.0139 0.3521,-0.0283 0.69606,-0.0673 1.02526,-0.12558 3.86421,-0.68309 6.12365,-9.91996 6.12365,-17.30385 0,-9.7841 -3.97053,-18.97133 -10.38231,-25.72143 -0.44558,-0.46912 -0.90384,-0.87095 -1.37252,-1.21646 -0.0131,-0.01 -0.0262,-0.0194 -0.0393,-0.0289 -0.29853,-0.21769 -0.60145,-0.41212 -0.90898,-0.58446 -0.0239,-0.0134 -0.0479,-0.0266 -0.0718,-0.0398 -0.15021,-0.0823 -0.30089,-0.16132 -0.45321,-0.23358 -0.001,-6.6e-4 -0.003,-10e-4 -0.004,-0.002 -0.006,-0.003 -0.0121,-0.005 -0.0181,-0.008 -0.13663,-0.0644 -0.27459,-0.12378 -0.41289,-0.18035 -0.0483,-0.0198 -0.0967,-0.039 -0.1452,-0.0579 -0.12147,-0.0472 -0.24318,-0.0918 -0.36589,-0.13332 -0.0562,-0.0191 -0.11256,-0.0369 -0.16896,-0.0548 -0.10123,-0.032 -0.20286,-0.0626 -0.30491,-0.091 -0.0788,-0.022 -0.1579,-0.0426 -0.2372,-0.0625 -0.0513,-0.0128 -0.10295,-0.0247 -0.15449,-0.0367 -0.17968,-0.0418 -0.36053,-0.0784 -0.54261,-0.11007 -0.0174,-0.003 -0.0348,-0.006 -0.0522,-0.009 -0.94226,-0.15867 -1.91587,-0.18902 -2.9192,-0.12351 -2.80445,0.18413 -5.83676,1.0898 -9.03303,1.85363 -0.0328,0.008 -0.0654,0.0155 -0.0982,0.0233 -1.39954,0.3328 -2.8308,0.63649 -4.2876,0.83923 -0.0708,0.01 -0.14198,0.0181 -0.21292,0.0274 -0.27161,0.0359 -0.54413,0.068 -0.8175,0.0961 -0.10529,0.0108 -0.21074,0.0204 -0.31626,0.03 -0.25512,0.0232 -0.51085,0.0419 -0.76739,0.0574 -0.11307,0.007 -0.22569,0.0155 -0.33901,0.0207 -0.0704,0.003 -0.14087,0.006 -0.21135,0.008 -0.26377,0.01 -0.52809,0.0165 -0.793225,0.0165 -0.0021,0 -0.004,0 -0.006,0 -0.003,0 -0.006,0 -0.009,0 -0.265142,-7e-5 -0.529,-0.007 -0.792711,-0.0165 -0.0705,-0.003 -0.141001,-0.005 -0.211381,-0.008 -0.11308,-0.005 -0.225639,-0.0139 -0.33846,-0.0207 -0.25677,-0.0154 -0.513098,-0.0341 -0.768419,-0.0574 -0.10555,-0.01 -0.210981,-0.0192 -0.31629,-0.03 -0.273371,-0.0281 -0.545889,-0.0602 -0.81751,-0.0961 -0.0707,-0.009 -0.141761,-0.0176 -0.212381,-0.0274 -1.458569,-0.20296 -2.891069,-0.507 -4.292247,-0.84026 -0.0273,-0.007 -0.0544,-0.0131 -0.0817,-0.0196 -3.200641,-0.76442 -6.236999,-1.67186 -9.044921,-1.85622 -0.37655,-0.0246 -0.74903,-0.0361 -1.117248,-0.0326 z m -0.32245,16.66823 c 0.11168,5e-5 0.222491,0.003 0.33279,0.009 0.0011,6e-5 0.0021,-6e-5 0.004,0 0.109088,0.006 0.217459,0.0138 0.32507,0.0248 3.263469,0.33253 5.810059,3.08834 5.810988,6.4394 -0.0011,3.35099 -2.547538,6.10694 -5.810988,6.4394 -0.216411,0.022 -0.435692,0.0334 -0.65786,0.0336 -0.111681,-4e-5 -0.222491,-0.003 -0.332801,-0.009 -3.41952,-0.17451 -6.139069,-3.00152 -6.14018,-6.4642 0.0011,-3.46276 2.720631,-6.28962 6.14018,-6.46421 0.10899,-0.005 0.218871,-0.009 0.3292,-0.009 z m 36.642694,0 c 0.11172,5e-5 0.22249,0.003 0.33283,0.009 0.001,6e-5 0.002,-6e-5 0.004,0 0.10908,0.006 0.21745,0.0138 0.32503,0.0248 3.2635,0.33253 5.8101,3.08834 5.81102,6.4394 -10e-4,3.35099 -2.54754,6.10694 -5.81102,6.4394 -0.21637,0.022 -0.43566,0.0334 -0.65783,0.0336 -0.11293,-4e-5 -0.22542,-0.003 -0.33692,-0.009 -0.10911,-0.006 -0.21743,-0.0139 -0.32505,-0.0248 -3.26345,-0.33246 -5.80973,-3.08841 -5.811,-6.4394 7.9e-4,-3.35106 2.5475,-6.10687 5.811,-6.4394 0.21642,-0.0219 0.43618,-0.0335 0.65835,-0.0336 z"
       id="rect6094-5-9"
       inkscape:connector-curvature="0" />
  </g>
</svg>
