<?xml version="1.0" standalone="no"?>
<!DOCTYPE svg PUBLIC "-//W3C//DTD SVG 20010904//EN"
 "http://www.w3.org/TR/2001/REC-SVG-20010904/DTD/svg10.dtd">
<svg version="1.0" xmlns="http://www.w3.org/2000/svg"
 width="512.000000pt" height="512.000000pt" viewBox="0 0 512.000000 512.000000"
 preserveAspectRatio="xMidYMid meet">

<g transform="translate(0.000000,512.000000) scale(0.100000,-0.100000)"
fill="#000000" stroke="none">
<path d="M2782 5110 c210 -33 398 -170 489 -355 65 -133 69 -162 69 -491 l0
-293 -26 -20 c-15 -12 -33 -21 -40 -21 -11 0 -14 -33 -14 -170 l0 -170 120 0
120 0 0 170 c0 158 1 170 18 170 10 0 28 10 40 23 22 23 22 29 22 309 0 324
-8 380 -77 511 -48 92 -164 211 -253 260 -117 64 -185 79 -365 83 -122 2 -146
1 -103 -6z"/>
<path d="M2465 4600 c-58 -18 -140 -76 -177 -125 -62 -82 -68 -112 -68 -347
l0 -208 341 0 340 0 -3 223 c-3 207 -5 225 -26 268 -34 70 -84 122 -154 159
-54 29 -74 34 -143 37 -44 1 -93 -2 -110 -7z"/>
<path d="M939 4238 c-58 -33 -79 -80 -79 -180 0 -136 -24 -128 388 -128 l341
0 -24 25 c-24 23 -25 29 -25 165 l0 140 -282 0 c-270 0 -285 -1 -319 -22z"/>
<path d="M2184 3308 c-30 -14 -44 -50 -44 -108 0 -60 15 -94 47 -109 34 -16
47 -14 77 10 24 19 26 26 26 99 0 73 -2 80 -26 99 -29 23 -48 25 -80 9z"/>
<path d="M2856 3299 c-24 -19 -26 -26 -26 -99 0 -73 2 -80 26 -99 30 -24 43
-26 77 -10 32 15 47 49 47 109 0 60 -15 94 -47 109 -34 16 -47 14 -77 -10z"/>
<path d="M3062 1607 c-49 -260 -314 -448 -578 -407 -107 16 -218 75 -293 155
-70 75 -104 137 -132 239 l-20 71 6 -85 c3 -47 5 -421 5 -832 l0 -748 509 0
510 0 3 833 c2 457 3 833 2 834 0 2 -6 -25 -12 -60z"/>
</g>
</svg>
