<?xml version="1.0" standalone="no"?>
<!DOCTYPE svg PUBLIC "-//W3C//DTD SVG 20010904//EN"
 "http://www.w3.org/TR/2001/REC-SVG-20010904/DTD/svg10.dtd">
<svg version="1.0" xmlns="http://www.w3.org/2000/svg"
 width="512.000000pt" height="512.000000pt" viewBox="0 0 512.000000 512.000000"
 preserveAspectRatio="xMidYMid meet">

<g transform="translate(0.000000,512.000000) scale(0.100000,-0.100000)"
fill="#000000" stroke="none">
<path d="M782 4628 c4 -431 6 -500 21 -552 26 -87 72 -178 127 -251 l48 -64 4
-298 c4 -281 5 -301 27 -355 31 -80 106 -159 189 -200 66 -33 67 -33 244 -36
l178 -4 0 272 c0 254 1 271 18 266 79 -23 198 -26 1009 -26 l873 0 0 -246 0
-246 178 4 178 3 66 33 c74 36 143 105 177 175 37 77 43 146 39 452 -4 254 -8
299 -26 366 -37 136 -103 249 -211 363 -138 143 -312 237 -546 293 -62 14
-180 17 -1005 22 -921 6 -936 7 -991 28 -123 46 -174 78 -255 158 -87 86 -139
176 -164 283 l-12 52 -85 0 -84 0 3 -492z"/>
<path d="M1947 837 c-46 -57 -622 -810 -631 -825 -5 -9 133 -12 586 -11 508 0
587 2 551 14 -134 41 -235 157 -263 301 -34 171 78 355 253 415 45 16 48 18
21 19 -97 1 -319 58 -446 113 l-37 17 -34 -43z"/>
<path d="M3043 843 c-134 -55 -311 -93 -434 -93 l-49 0 0 -375 0 -375 625 0
c344 0 625 2 625 5 0 3 -139 187 -308 408 -170 221 -319 417 -332 435 -13 17
-29 31 -34 31 -6 -1 -48 -17 -93 -36z"/>
</g>
</svg>
